<svg width="10" height="10" viewBox="0 0 10 10" fill="none" xmlns="http://www.w3.org/2000/svg">
<path fill-rule="evenodd" clip-rule="evenodd" d="M1.96959 0.757359C1.63486 0.422624 1.09215 0.422624 0.757411 0.757359C0.422676 1.09209 0.422676 1.63481 0.757412 1.96954L3.08076 4.29289C3.47129 4.68342 3.47129 5.31658 3.08076 5.70711L0.757411 8.03046C0.422676 8.36519 0.422675 8.9079 0.757411 9.24264C1.09215 9.57738 1.63486 9.57737 1.96959 9.24264L4.29294 6.91929C4.68347 6.52877 5.31663 6.52877 5.70716 6.91929L8.03051 9.24264C8.36524 9.57738 8.90796 9.57738 9.24269 9.24264C9.57743 8.90791 9.57743 8.36519 9.24269 8.03046L6.91934 5.70711C6.52882 5.31658 6.52882 4.68342 6.91934 4.29289L9.24269 1.96954C9.57743 1.63481 9.57743 1.09209 9.24269 0.757359C8.90796 0.422624 8.36524 0.422625 8.03051 0.75736L5.70716 3.08071C5.31663 3.47123 4.68347 3.47123 4.29294 3.08071L1.96959 0.757359Z" fill="#101010"/>
</svg>
