<svg width="98" height="110" viewBox="0 0 98 110" fill="none" xmlns="http://www.w3.org/2000/svg">
<g clip-path="url(#clip0_14_967)">
<path d="M24.0362 61.2509C23.5053 60.8647 23.0226 60.4303 22.5882 59.9477C21.3815 60.5269 18.3407 61.6853 14.8172 60.0442C13.2727 59.3202 12.066 58.1618 10.9076 57.0999C10.3284 56.5207 9.74922 55.9898 9.12175 55.5071C8.68735 55.1692 8.20468 54.8314 7.67375 54.5418C6.37055 53.8178 4.82601 53.8178 3.52281 54.5418C3.08841 54.7831 2.75054 55.0727 2.46094 55.4106C5.26041 54.5418 8.05988 56.3759 10.1354 60.913C11.5351 63.9055 11.6799 67.3325 11.5834 69.8423C11.6799 69.8906 11.7282 69.9872 11.8247 70.0837C12.0178 70.2768 12.2108 70.4216 12.4039 70.6146C15.2999 73.4624 16.7479 76.3101 16.9892 79.5922C17.0858 80.992 17.0858 82.2469 16.941 83.4536C16.6031 86.5909 15.6378 89.3421 14.1898 92.8656C13.5623 94.4584 12.9831 96.1478 12.5487 97.8854C14.962 96.6787 17.2306 95.1824 18.9682 93.3C22.5882 89.2939 25.0981 84.3224 26.0634 79.013C26.7874 74.9586 26.1117 67.2359 24.905 61.8301C24.5671 61.637 24.3258 61.4439 24.0362 61.2509Z" fill="#F8AD5F"/>
<path d="M77.757 72.497C77.0813 71.9178 76.4056 71.3386 75.8264 70.8077C72.1098 67.429 68.8759 64.2917 66.6557 60.2855C65.9317 61.4439 65.4007 62.6989 64.9663 63.8573C63.1322 68.6839 62.6495 73.9933 63.5666 79.0613C64.2906 82.9226 65.7869 86.6875 68.0071 89.9213L71.7237 86.2048C71.4824 85.6256 71.1928 85.0464 70.9514 84.4672C70.7101 83.9362 70.4688 83.4053 70.4688 82.7778C70.4688 81.909 70.9514 81.185 71.6754 80.9437C72.3029 80.7024 72.8821 80.8954 73.3165 81.185C73.0752 78.6752 73.413 76.2136 75.4402 74.5242C76.2608 73.8485 77.2261 73.3176 78.288 72.9314C78.0949 72.7866 77.9018 72.6418 77.757 72.497Z" fill="#F8AD5F"/>
<path d="M67.9588 33.8353L67.6692 33.4492C67.5244 33.3044 67.4762 33.0631 67.5244 32.87C67.5727 32.6769 67.6692 32.4839 67.8623 32.3873C69.5034 31.4703 75.4885 24.6164 76.309 13.322L76.3573 12.8876C76.5021 10.7638 76.6469 8.59181 76.6469 6.46807V6.17847C76.6469 4.87527 76.6469 3.04113 75.8263 2.22059C73.4613 -0.144479 68.7794 3.8134 66.7522 5.45447C63.7596 7.96434 60.9602 11.0534 58.1607 14.8665C55.506 18.4865 52.9961 18.583 50.6793 18.39C49.6657 18.2934 48.6039 18.1486 47.6385 18.0521C46.4801 17.9073 45.4183 17.7625 44.8391 17.7625C44.2599 17.7625 43.198 17.9073 42.0396 18.0521C41.0742 18.1969 40.0124 18.2934 38.9988 18.39C36.682 18.583 34.1721 18.4865 31.5174 14.8665C28.718 11.0051 25.9185 7.96434 22.9259 5.45447C20.8987 3.76513 16.1686 -0.192746 13.8518 2.17233C13.0313 2.99286 13.0312 4.827 13.0312 6.1302V6.4198C13.0312 8.54354 13.1761 10.7155 13.3209 12.8393L13.3691 13.2737C14.0931 24.6164 20.0782 31.4703 21.7193 32.3873C21.9123 32.4839 22.0089 32.6769 22.0571 32.87C22.1054 33.0631 22.0571 33.3044 21.9123 33.4492L21.6227 33.8353C23.843 33.7388 26.9321 34.0284 29.3937 36.0073C33.7377 39.4825 37.2129 38.5655 39.047 37.3105C40.8812 36.0556 42.8601 34.3663 44.7908 34.3663C46.7215 34.3663 48.7004 36.0556 50.5345 37.3105C52.3687 38.5655 55.8439 39.4343 60.1879 36.0073C62.6012 34.0767 65.6903 33.7388 67.9588 33.8353ZM31.5174 21.5273C30.6004 24.1337 27.8009 26.4023 25.4358 27.4641C25.3393 27.5124 25.2427 27.5124 25.0979 27.5124C24.8083 27.5124 24.567 27.3676 24.4222 27.078V27.0297C19.4507 28.3812 17.3753 18.2934 16.9409 15.1561C16.6995 13.3702 15.4929 8.83314 16.6513 6.8542C16.603 6.80594 16.5547 6.80594 16.5547 6.75767C16.3134 6.46807 16.3617 5.9854 16.6513 5.74407C18.6302 4.19953 21.0435 6.46807 22.3467 7.72301C22.5398 7.86781 22.6846 8.01261 22.8294 8.15741C24.8083 9.94328 26.739 11.874 28.5249 13.9977C29.4902 15.1078 31.1313 17.0385 31.614 19.0174C31.8553 19.8862 31.807 20.7068 31.5174 21.5273ZM35.1374 34.8972C33.979 34.8972 33.0137 33.9319 33.0137 32.7735C33.0137 31.6151 33.979 30.6497 35.1374 30.6497C36.2958 30.6497 37.2612 31.6151 37.2612 32.7735C37.2612 33.9319 36.2958 34.8972 35.1374 34.8972ZM73.413 5.74407C73.7026 5.93714 73.7509 6.32327 73.6061 6.61287C73.6061 6.66114 73.5578 6.7094 73.5095 6.75767C73.4613 6.80594 73.4613 6.8542 73.413 6.8542C74.5714 8.83314 73.3647 13.3702 73.1234 15.1561C72.689 18.1486 70.8066 27.4641 66.2695 27.1263C66.0282 27.1263 65.8351 27.078 65.5938 27.0297V27.078C65.5938 27.078 65.5938 27.078 65.5938 27.1263C65.449 27.3676 65.2076 27.5124 64.9663 27.5124C64.8698 27.5124 64.7732 27.5124 64.6767 27.4641C62.3116 26.354 59.5122 24.1337 58.5468 21.5273C58.2572 20.755 58.2572 19.8862 58.4503 18.9692C58.933 16.9902 60.574 15.1078 61.5394 13.9494C63.3252 11.874 65.2559 9.89501 67.2348 8.10914C67.3796 7.96434 67.5244 7.81954 67.7175 7.67474C68.6828 6.80594 70.2274 5.35793 71.7237 5.21313C72.3029 5.16487 72.8821 5.30967 73.413 5.74407ZM58.6916 33.8353C58.5468 34.2215 58.1124 34.3663 57.7263 34.2215C57.0023 33.9319 56.1818 33.7871 55.3612 33.7871C54.3476 33.7871 53.334 34.0284 52.5135 34.4628C52.4169 34.5111 52.2721 34.5593 52.1756 34.5593C52.0308 34.5593 51.886 34.5111 51.7412 34.4145C51.4999 34.2215 51.4033 33.9319 51.4999 33.6905C51.9825 31.5185 53.9132 30.0223 56.1335 30.0223C56.9058 30.0223 57.678 30.2153 58.3538 30.5532C58.6916 30.7463 58.8364 31.1807 58.6434 31.5185C58.4503 31.8564 58.0159 32.0012 57.678 31.8081C57.1954 31.5668 56.6644 31.422 56.1335 31.422C55.1682 31.422 54.2511 31.8564 53.6719 32.5321C55.1681 32.1943 56.9058 32.3391 58.3055 32.87C58.6916 33.0631 58.8364 33.4492 58.6916 33.8353Z" fill="#F8AD5F"/>
<path d="M48.5561 52.9971C46.9633 52.7558 45.6601 51.9835 44.7431 50.7768C43.826 51.9835 42.5228 52.7558 40.93 52.9971C39.9164 53.1419 38.8063 53.0936 37.7444 52.804C38.1305 53.4315 38.4684 54.1555 38.758 54.9278C38.8063 55.1208 38.9028 55.3622 38.9511 55.5552C39.0959 55.9896 39.2407 56.4723 39.3855 56.9067C41.0265 58.2582 42.8607 58.9822 44.7431 58.9822C46.6255 58.9822 48.4596 58.2099 50.1007 56.9067C50.2455 56.4723 50.3903 55.9896 50.5351 55.5552C50.5834 55.3622 50.6799 55.1208 50.7282 54.9278C50.9695 54.1072 51.3556 53.3832 51.7418 52.804C51.066 52.9971 50.342 53.0936 49.6663 53.0936C49.3284 53.0936 48.9423 53.0936 48.5561 52.9971Z" fill="#F48E8F"/>
<path d="M96.0508 81.4747L88.0868 73.5107C87.8455 73.2694 87.5559 73.1729 87.2663 73.1729C86.9767 73.1729 86.6388 73.3177 86.4458 73.5107L83.7428 76.2137C84.9977 77.7099 86.0596 79.3027 86.5905 81.0886C87.218 83.2606 86.7836 85.6257 85.4321 87.0737C85.2873 87.2185 85.1425 87.3633 84.9977 87.4598C84.9495 87.5081 84.9012 87.5081 84.8529 87.5563C84.7564 87.6529 84.6116 87.7011 84.5151 87.7977C84.4668 87.8459 84.4185 87.846 84.3703 87.8942C84.2255 87.9908 84.0807 88.039 83.9841 88.0873C83.9359 88.0873 83.9359 88.1356 83.8876 88.1356C83.6945 88.2321 83.5497 88.2803 83.3567 88.3286C83.3084 88.3286 83.2601 88.3286 83.2119 88.3769C83.0671 88.4252 82.9223 88.4252 82.7775 88.4734C82.7292 88.4734 82.6327 88.4734 82.5844 88.5217C82.4396 88.5217 82.2948 88.57 82.15 88.57C82.1017 88.57 82.0535 88.57 82.0052 88.57H81.9569C81.8121 88.57 81.7156 88.57 81.5708 88.57C81.4743 88.57 81.426 88.57 81.3295 88.57C81.0881 88.57 80.8951 88.5217 80.6537 88.4734C78.4335 87.9907 76.6959 86.5427 75.1031 84.9499L73.462 86.591L72.9311 87.1219L72.4001 87.6529L68.8766 91.1764L66.7529 93.3001C66.5116 93.5414 66.415 93.831 66.415 94.1206C66.415 94.4102 66.5598 94.7481 66.7529 94.9412L74.7169 102.905C75.1996 103.388 75.9236 103.388 76.4063 102.905L77.806 101.505L78.4335 100.878L79.0127 100.299L96.0991 83.2123C96.5335 82.6814 96.5335 81.9574 96.0508 81.4747ZM76.5993 93.1553C76.5511 93.2036 76.5028 93.2036 76.5028 93.2518C76.3097 93.3966 76.0201 93.4932 75.7788 93.4449C75.5375 93.4449 75.3444 93.3484 75.1513 93.1553C75.1031 93.107 75.1031 93.0588 75.1513 93.0105C75.2479 92.914 75.3444 92.8174 75.4892 92.7692C75.7305 92.6726 76.0201 92.6726 76.3097 92.7692C76.4063 92.8174 76.5028 92.8657 76.5993 92.9622C76.6476 93.0588 76.6476 93.107 76.5993 93.1553ZM78.6265 99.2369L78.0956 99.7678L77.5164 100.347L76.5028 101.361C76.2615 101.602 75.9236 101.747 75.634 101.747C75.2961 101.747 75.0065 101.602 74.7652 101.361C74.2825 100.878 74.2825 100.057 74.7652 99.5748L76.6476 97.6924L76.6959 97.6441L76.8407 97.4993C76.9855 97.3545 77.1303 97.258 77.3233 97.2097C77.5647 97.1132 77.8543 97.1132 78.0956 97.1614C78.2887 97.2097 78.4817 97.3062 78.6265 97.4993C79.1092 97.982 79.1092 98.706 78.7231 99.1886C78.6748 99.1886 78.6265 99.2369 78.6265 99.2369ZM78.8196 93.2518C78.1921 93.8793 77.3716 93.7345 77.1303 93.4932C77.0337 93.3484 76.9372 93.2518 76.8407 93.0588C76.7924 92.9622 76.7441 92.8657 76.6476 92.7692C76.5511 92.6726 76.4545 92.6244 76.358 92.5761C76.3097 92.5278 76.2132 92.5278 76.1649 92.4796C76.0684 92.4313 76.0201 92.383 75.9236 92.3348C75.7788 92.0934 75.6823 91.8521 75.7305 91.5625C75.7305 91.5142 75.7305 91.466 75.7788 91.4177C75.7788 91.3694 75.8753 91.3694 75.9236 91.3694C76.1649 91.466 76.4063 91.466 76.5993 91.3212C76.8889 91.1281 76.9372 90.6937 76.6959 90.4041C76.6959 90.4041 76.6959 90.3558 76.6959 90.3076C76.6959 90.2593 76.6959 90.2593 76.7441 90.2593C77.3233 89.9697 78.0956 89.7766 78.3369 90.0662C78.4817 90.211 78.5783 90.3558 78.6265 90.5489C78.6265 90.5972 78.6748 90.6937 78.7231 90.742C78.7713 90.7902 78.8196 90.8385 78.9161 90.8385C79.1092 90.8868 79.254 90.9833 79.3988 91.1281C79.7849 91.466 79.4471 92.6726 78.8196 93.2518Z" fill="#EF4E50"/>
<path d="M65.2085 26.1124C65.3533 26.1607 65.4498 26.2572 65.4981 26.3537C65.6429 26.5468 65.6429 26.7881 65.5946 26.9812C65.836 27.0295 66.029 27.0777 66.2704 27.0777C70.7592 27.4156 72.6898 18.1001 73.1242 15.1076C73.3656 13.3217 74.5722 8.78463 73.4138 6.80569C73.3173 6.90222 73.1725 6.95049 73.0277 6.95049C72.8346 6.95049 72.6416 6.90222 72.4968 6.80569C72.2554 6.61262 71.9658 6.56436 71.628 6.61262C70.7592 6.75742 69.649 7.72276 68.6354 8.6881C68.4424 8.88116 68.2976 9.02596 68.1528 9.17076C66.2221 10.9084 64.3397 12.839 62.5538 14.8662C61.685 15.8798 60.1887 17.6175 59.7543 19.2585C59.6095 19.886 59.6095 20.4652 59.8026 20.9479C60.6714 23.2164 63.133 25.1953 65.2085 26.1124Z" fill="white"/>
<path d="M24.4232 27.0295C24.2784 26.6916 24.4715 26.3055 24.8093 26.1124C26.8848 25.1471 29.3947 23.2164 30.1669 20.9961C30.36 20.4652 30.36 19.9342 30.2152 19.3068C29.8291 17.6657 28.3328 15.9281 27.4157 14.9145C25.6781 12.8873 23.7957 10.9566 21.8168 9.21902C21.672 9.07422 21.5272 8.92942 21.3341 8.73635C21.2376 8.63981 21.0928 8.49501 20.9962 8.39848C20.948 8.35021 20.948 8.35021 20.8997 8.30195C20.7549 8.20541 20.6584 8.06061 20.5136 7.96408L20.4653 7.91581C20.3688 7.81928 20.224 7.72275 20.1274 7.62621L20.0792 7.57795C19.9826 7.48141 19.8378 7.38488 19.7413 7.28835C19.693 7.28835 19.693 7.24008 19.6448 7.24008C19.5 7.14354 19.4034 7.09528 19.3069 6.99874C19.2104 6.95048 19.0656 6.85394 18.969 6.80568C18.9208 6.80568 18.9208 6.75741 18.8725 6.75741C18.776 6.70914 18.6312 6.66088 18.5346 6.66088H18.4864C18.3898 6.66088 18.2933 6.61261 18.1968 6.61261H18.1485H18.1002C18.052 6.61261 18.0037 6.61261 17.9554 6.61261H17.9072C17.8589 6.61261 17.8106 6.66088 17.7624 6.66088H17.7141C17.6658 6.70914 17.6176 6.70914 17.5693 6.75741C17.2797 6.95048 16.9418 6.95048 16.6522 6.75741C15.4938 8.73635 16.7005 13.2734 16.9418 15.0593C17.3762 18.2932 19.4517 28.3809 24.4232 27.0295Z" fill="white"/>
<path d="M78.9645 90.8382C78.9163 90.8382 78.8197 90.7899 78.7715 90.7416C78.7232 90.6934 78.6749 90.6451 78.6749 90.5486C78.6267 90.3555 78.5301 90.2107 78.3853 90.0659C78.0957 89.7763 77.3235 89.9694 76.7925 90.259L76.7442 90.3072C76.7442 90.3555 76.7442 90.3555 76.7442 90.4038C76.9373 90.6934 76.8891 91.0795 76.6477 91.3208C76.4546 91.4656 76.165 91.5139 75.972 91.3691C75.9237 91.3691 75.8754 91.3691 75.8272 91.4174C75.8272 91.4656 75.8272 91.5139 75.7789 91.5622C75.7306 91.8518 75.8272 92.0931 75.972 92.3344C76.0202 92.3827 76.1168 92.431 76.2133 92.4792C76.2616 92.5275 76.3581 92.5275 76.4064 92.5758C76.5029 92.624 76.5994 92.6723 76.696 92.7688C76.7925 92.8654 76.8408 92.9619 76.8891 93.0584C76.9373 93.2032 77.0338 93.348 77.1786 93.4928C77.42 93.7342 78.2405 93.879 78.868 93.2515C79.4472 92.6723 79.7851 91.4174 79.4472 91.0795C79.3024 90.983 79.1093 90.8864 78.9645 90.8382Z" fill="white"/>
<path d="M76.5029 93.2515C76.5512 93.2032 76.5995 93.2032 76.5995 93.155C76.6477 93.1067 76.6477 93.0584 76.5995 93.0102C76.5029 92.9136 76.4064 92.8654 76.3099 92.8171C76.0685 92.7206 75.7789 92.6723 75.4893 92.8171C75.3445 92.8654 75.248 92.9619 75.1514 93.0584C75.1032 93.1067 75.1032 93.155 75.1514 93.2032C75.3445 93.3963 75.5376 93.4446 75.7789 93.4928C76.0202 93.4446 76.3098 93.3963 76.5029 93.2515Z" fill="white"/>
<path d="M10.1362 60.9128C8.06069 56.3757 5.26122 54.5415 2.46175 55.4103C1.88254 56.0378 1.54468 56.9066 1.44814 57.8237C1.35161 59.2234 1.93081 60.5266 2.41348 61.3954C3.90975 63.9053 6.08175 65.5464 8.44683 67.3322C9.5087 68.1528 10.5706 68.9733 11.5842 69.8904C11.729 67.3322 11.5359 63.9053 10.1362 60.9128Z" fill="white"/>
<path d="M77.3721 103.87C76.8412 104.401 76.1654 104.642 75.4897 104.642C74.814 104.642 74.1382 104.401 73.6073 103.87L65.6433 95.906C65.1606 95.4233 64.871 94.7476 64.871 94.0236C64.871 93.2996 65.1606 92.6721 65.6433 92.1412L67.9118 89.8726C65.6915 86.5905 64.147 82.874 63.4713 79.0126C62.5542 73.9446 63.0851 68.6353 64.871 63.8086C65.3054 62.6502 65.8846 61.3952 66.5603 60.2368C64.7262 61.9262 62.6025 63.2294 60.527 63.9051C60.1409 64.0499 59.7547 63.8086 59.6099 63.4224C59.6099 63.3742 59.5617 63.2776 59.5617 63.2294C59.5617 62.9398 59.7547 62.6502 60.0443 62.5536C61.975 61.9744 63.9539 60.7195 65.6433 59.0784C68.2014 56.6168 70.1321 53.3347 70.1321 50.0043C70.1321 49.6664 70.2769 49.3768 70.5665 49.232C71.0492 48.9424 71.5318 49.232 72.0145 49.4733C72.0145 49.4251 72.0145 49.4251 72.0145 49.3768V49.2803C72.0628 48.508 71.8697 47.4944 71.5801 46.7704C71.0974 45.6603 71.0974 44.6949 71.5801 44.2123C71.8697 43.9227 72.2558 43.7779 72.6902 43.9227C72.835 43.9709 72.9798 44.0192 73.1246 44.0675C73.2212 44.1157 73.3177 44.164 73.4142 44.164C73.6556 43.4883 72.8833 41.8472 72.5454 41.1232C72.4489 40.9301 72.3524 40.7371 72.3041 40.5923C71.7249 39.2891 71.0492 37.9858 70.2286 36.8274C69.6494 35.9586 68.9737 35.1381 68.2497 34.3658L67.8153 33.7866C65.595 33.6901 62.5059 33.9797 60.0443 35.9586C55.7003 39.4339 52.2251 38.5168 50.391 37.2618C48.5568 36.0069 46.5779 34.3176 44.6472 34.3176C42.7166 34.3176 40.7376 36.0069 38.9035 37.2618C37.0693 38.5168 33.5941 39.3856 29.2501 35.9586C26.7885 34.028 23.6994 33.6901 21.4792 33.7866L21.0448 34.3176C20.3208 35.1381 19.645 35.9586 19.0658 36.8274C18.7762 37.2618 18.0522 38.7581 17.8109 39.5787C18.4866 39.3856 18.8728 39.6269 19.0658 39.7717C19.452 40.1096 19.5485 40.6888 19.3554 41.3645C19.1141 42.1851 18.6314 42.8125 18.197 43.44C17.9557 43.7296 17.7626 44.0192 17.6178 44.3088C17.0386 45.2741 16.8938 46.4808 16.749 47.6875C16.7008 47.9771 16.7973 48.7493 16.8938 49.2803C16.9904 49.1355 17.0869 48.9424 17.1834 48.7976C17.6178 48.2667 18.1005 48.3632 18.2453 48.4115C18.9693 48.6528 19.0658 49.6181 19.1624 50.7283C19.1624 50.7765 19.1624 50.8248 19.1624 50.8731C19.3072 52.2728 19.7416 53.576 20.4656 54.9275C21.1413 56.1824 22.0101 57.3408 22.9754 58.4027C23.0237 58.451 23.072 58.4992 23.072 58.5475C23.2168 58.6923 23.3616 58.8371 23.5064 58.9819C23.6029 59.0784 23.7477 59.2232 23.8442 59.3198C23.8925 59.368 23.9408 59.4163 23.989 59.4646C24.8578 60.2368 25.8232 60.9126 26.8368 61.4918C27.609 61.9262 28.3331 62.2158 29.1053 62.4571C29.3949 62.5536 29.588 62.8432 29.588 63.1328C29.588 63.1811 29.588 63.2776 29.5397 63.3259C29.4432 63.6155 29.1536 63.8568 28.864 63.8568C28.8157 63.8568 28.7192 63.8568 28.6709 63.8086C27.8504 63.5672 26.9816 63.1811 26.161 62.6984C25.6301 62.4088 25.0992 62.071 24.6165 61.7331C25.8232 67.139 26.5472 74.8617 25.7749 78.9161C24.8096 84.1772 22.2997 89.1969 18.6797 93.1548C16.9421 95.0855 14.6736 96.5817 12.2602 97.7401C11.1983 101.601 10.6191 105.704 10.6191 109.179H78.6753C78.6753 107.104 78.4822 105.077 78.1444 103.049L77.3721 103.87ZM44.792 101.843C43.6336 101.843 42.6683 100.877 42.6683 99.7191C42.6683 98.5607 43.6336 97.5953 44.792 97.5953C45.9504 97.5953 46.9158 98.5607 46.9158 99.7191C46.9158 100.877 45.9504 101.843 44.792 101.843ZM57.5345 48.7011C57.0518 49.3285 56.6174 49.9077 56.2313 50.3421C55.7969 50.7765 55.3142 51.1627 54.8315 51.5005C54.5419 51.7419 52.8526 53.1899 52.1768 55.4102C52.1286 55.6032 52.032 55.7963 51.9838 56.0376C51.6942 57.003 51.3563 58.0648 50.8254 59.0784C49.86 60.8643 48.1707 62.3606 44.792 62.3606C41.4134 62.3606 39.724 60.8643 38.7587 59.0784C38.2277 58.0648 37.8899 57.003 37.6003 56.0376C37.552 55.8446 37.4555 55.6032 37.4072 55.4102C36.6832 53.1416 34.9456 51.6453 34.7043 51.4523C34.2216 51.1144 33.7389 50.7283 33.3045 50.2939C32.9184 49.8595 32.484 49.2803 32.0013 48.6528C30.9877 47.3013 29.6363 45.4189 28.4779 45.4189C28.0917 45.4189 27.7538 45.0811 27.7538 44.6949C27.7538 44.3088 28.0917 43.9709 28.4779 43.9709C30.4085 43.9709 31.9531 46.0947 33.1597 47.784C33.5941 48.3632 33.9803 48.9424 34.3181 49.2803C35.9592 50.9213 38.5656 51.8867 40.6894 51.5488C41.6064 51.404 42.8614 50.9696 43.7302 49.6664C42.5235 48.9424 40.0136 47.2048 39.5792 45.1293C39.2896 43.7296 39.5792 42.3781 40.3997 41.3163C41.3651 40.1096 42.9096 39.4338 44.7438 39.4338C46.5779 39.4338 48.1224 40.1096 49.0878 41.3163C49.9566 42.3781 50.2462 43.7296 49.9083 45.1293C49.4256 47.2531 46.964 48.9424 45.7574 49.6664C46.6262 50.9213 47.8328 51.404 48.7982 51.5488C50.9219 51.8867 53.5766 50.9696 55.1694 49.2803C55.5073 48.9424 55.8934 48.3632 56.3278 47.784C57.5827 46.0947 59.1273 43.9709 61.0097 43.9709C61.3958 43.9709 61.7337 44.3088 61.7337 44.6949C61.7337 45.0811 61.3958 45.4189 61.0097 45.4189C59.8995 45.4672 58.4998 47.3496 57.5345 48.7011Z" fill="white"/>
<path d="M44.7917 100.395C45.1649 100.395 45.4674 100.092 45.4674 99.7193C45.4674 99.3461 45.1649 99.0435 44.7917 99.0435C44.4185 99.0435 44.116 99.3461 44.116 99.7193C44.116 100.092 44.4185 100.395 44.7917 100.395Z" fill="white"/>
<path d="M39.3857 56.9549C39.6753 57.7272 39.9649 58.4512 40.4476 59.0304C41.2681 60.1405 42.5231 60.8645 44.7434 60.8645C46.9636 60.8645 48.2186 60.0922 49.0391 59.0304C49.5218 58.4029 49.8114 57.6789 50.101 56.9549C48.4599 58.3064 46.6258 59.0304 44.7434 59.0304C42.861 59.0786 41.0751 58.3064 39.3857 56.9549Z" fill="white"/>
<path d="M85.1425 81.4744C84.7081 79.9781 83.791 78.5301 82.6809 77.2269C82.5361 77.0338 82.343 76.8408 82.1982 76.696C82.0534 76.5029 81.8604 76.3581 81.7156 76.165C80.6054 75.0066 79.3987 73.9448 78.2403 72.9312C77.2267 73.3173 76.2614 73.8482 75.3926 74.524C73.3654 76.165 72.9793 78.6749 73.2689 81.1848C73.655 81.4261 73.9446 81.7157 74.1377 81.8605C74.4755 82.1501 74.7651 82.488 75.103 82.8258C75.1513 82.8741 75.1995 82.9224 75.2961 83.0189C75.3926 83.1154 75.5374 83.2602 75.6339 83.3568C75.7787 83.5498 75.9718 83.6946 76.1649 83.8877C77.6129 85.3357 79.1574 86.6389 80.9915 87.0251C82.3913 87.3147 83.598 87.0251 84.4185 86.108C85.3356 84.9496 85.6734 83.1637 85.1425 81.4744Z" fill="white"/>
<path d="M44.7917 97.5957C43.6333 97.5957 42.668 98.561 42.668 99.7194C42.668 100.878 43.6333 101.843 44.7917 101.843C45.9501 101.843 46.9155 100.878 46.9155 99.7194C46.9155 98.5128 45.9501 97.5957 44.7917 97.5957ZM44.7917 100.395C44.4056 100.395 44.116 100.106 44.116 99.7194C44.116 99.3333 44.4056 99.0437 44.7917 99.0437C45.1778 99.0437 45.4674 99.3333 45.4674 99.7194C45.4674 100.057 45.1296 100.395 44.7917 100.395Z" fill="#101010"/>
<path d="M62.6017 14.9146C64.3393 12.8874 66.2217 10.9567 68.2006 9.21913C68.3454 9.07433 68.4902 8.92953 68.6833 8.73646C69.6969 7.77112 70.807 6.85406 71.6758 6.66099C72.0137 6.61272 72.3033 6.66099 72.5446 6.85406C72.6894 6.99886 72.8825 7.04712 73.0756 6.99886C73.2204 6.99886 73.3652 6.95059 73.4617 6.85406C73.51 6.80579 73.5582 6.80579 73.5582 6.75752C73.6065 6.70925 73.6065 6.66099 73.6548 6.61272C73.7996 6.32312 73.703 5.93699 73.4617 5.74392C72.9308 5.30952 72.3516 5.16472 71.7724 5.26125C70.2278 5.40605 68.7316 6.85406 67.7662 7.72286C67.5732 7.86766 67.4284 8.01246 67.2836 8.15726C65.2564 9.94313 63.3739 11.8738 61.5881 13.9975C60.6227 15.1077 58.9817 17.0383 58.499 19.0173C58.2577 19.9344 58.3059 20.7549 58.5955 21.5754C59.5126 24.1818 62.3121 26.4504 64.7254 27.5122C64.822 27.5605 64.9185 27.5605 65.015 27.5605C65.2564 27.5605 65.546 27.4157 65.6425 27.1744C65.6425 27.1744 65.6425 27.1744 65.6425 27.1261V27.0778C65.739 26.8365 65.6908 26.5952 65.546 26.4504C65.4977 26.3538 65.3529 26.2573 65.2564 26.209C63.1809 25.2437 60.671 23.313 59.8987 21.0928C59.7057 20.5618 59.7057 20.0309 59.8505 19.4034C60.2366 17.6658 61.7329 15.9282 62.6017 14.9146Z" fill="#101010"/>
<path d="M24.8085 26.1125C24.4706 26.2573 24.3258 26.6435 24.4223 27.0296V27.0779C24.5671 27.3192 24.8085 27.5123 25.0981 27.5123C25.1946 27.5123 25.2911 27.5123 25.3877 27.464C27.7527 26.3539 30.5522 24.1336 31.4693 21.5272C31.7589 20.7549 31.7589 19.8861 31.5658 18.9691C31.0831 16.9901 29.4421 15.1077 28.4767 13.9493C26.6909 11.8738 24.7602 9.8949 22.7812 8.10903C22.6364 7.96423 22.4916 7.81943 22.2986 7.67463C20.9954 6.41969 18.5338 4.15115 16.6031 5.69569C16.2652 5.93702 16.217 6.41969 16.5066 6.70929C16.5548 6.75756 16.5548 6.80583 16.6031 6.80583C16.8444 6.99889 17.2306 7.04716 17.5202 6.80583C17.5684 6.75756 17.6167 6.70929 17.665 6.70929H17.7132C17.7615 6.70929 17.8098 6.66103 17.858 6.66103H17.9063C17.9546 6.66103 18.0028 6.66103 18.0511 6.66103H18.0994H18.1476C18.2442 6.66103 18.3407 6.66102 18.4372 6.70929H18.4855C18.582 6.75756 18.6786 6.75756 18.8234 6.80583C18.8716 6.80583 18.8716 6.80583 18.9199 6.85409C19.0164 6.90236 19.1612 6.95063 19.2578 7.04716C19.3543 7.09543 19.4991 7.19196 19.5956 7.28849C19.6439 7.28849 19.6439 7.33676 19.6922 7.33676C19.7887 7.43329 19.9335 7.52983 20.03 7.62636L20.0783 7.67463C20.1748 7.77116 20.3196 7.86769 20.4162 7.96423L20.4644 8.0125C20.6092 8.10903 20.7058 8.20556 20.8506 8.35036C20.8988 8.39863 20.8988 8.39863 20.9471 8.4469C21.0919 8.54343 21.1884 8.68823 21.285 8.78476C21.478 8.97783 21.6228 9.12263 21.7676 9.26743C23.6983 11.005 25.5807 12.9357 27.3666 14.9629C28.2354 15.9765 29.7317 17.7141 30.1661 19.3552C30.3109 19.9827 30.3109 20.5619 30.1178 21.0445C29.3938 23.2165 26.9322 25.1955 24.8085 26.1125Z" fill="#101010"/>
<path d="M61.7816 44.7435C61.7816 44.3574 61.4437 44.0195 61.0576 44.0195C59.1269 44.0195 57.5824 46.1432 56.3757 47.8326C55.9413 48.4118 55.5552 48.991 55.2173 49.3288C53.5762 50.9699 50.9698 51.9353 48.8461 51.5974C47.929 51.4526 46.6741 51.0182 45.8053 49.715C47.0119 48.991 49.5218 47.2534 49.9562 45.1779C50.2458 43.7782 49.9562 42.4267 49.1357 41.3648C48.1703 40.1582 46.6258 39.4824 44.7917 39.4824C42.9575 39.4824 41.413 40.1582 40.4477 41.3648C39.5789 42.4267 39.2893 43.7782 39.6271 45.1779C40.1098 47.3016 42.5714 48.991 43.7781 49.715C42.9093 50.9699 41.7026 51.4526 40.7373 51.5974C38.6135 51.9353 35.9588 51.0182 34.366 49.3288C34.0282 48.991 33.642 48.4118 33.2076 47.8326C31.9527 46.1432 30.4082 44.0195 28.5258 44.0195C28.1396 44.0195 27.8018 44.3574 27.8018 44.7435C27.8018 45.1296 28.1396 45.4675 28.5258 45.4675C29.6842 45.4675 31.0839 47.3499 32.0492 48.7014C32.5319 49.3288 32.9663 49.908 33.3524 50.3425C33.7868 50.7769 34.2212 51.163 34.7522 51.5009C34.9452 51.6939 36.7311 53.1419 37.4551 55.4587C37.5034 55.6518 37.5999 55.8449 37.6482 56.0862C37.9378 57.0515 38.2757 58.1134 38.8066 59.127C39.7719 60.9129 41.4613 62.4091 44.8399 62.4091C48.2186 62.4091 49.9079 60.9129 50.8733 59.127C51.4042 58.1134 51.7421 57.0515 52.0317 56.0862C52.0799 55.8931 52.1765 55.6518 52.2247 55.4587C52.9005 53.2385 54.5898 51.7905 54.8794 51.5491C55.4104 51.2113 55.8448 50.8251 56.2792 50.3907C56.6653 49.9563 57.0997 49.3771 57.5824 48.7496C58.596 47.3982 59.9474 45.5158 61.1058 45.5158C61.4437 45.4675 61.7816 45.1296 61.7816 44.7435ZM50.5837 55.6035C50.4389 56.0379 50.2941 56.5206 50.1493 56.955C49.8597 57.7273 49.5701 58.4513 49.0874 59.0305C48.2669 60.1406 47.0119 60.8646 44.7917 60.8646C42.5714 60.8646 41.3165 60.0923 40.4959 59.0305C40.0133 58.403 39.7237 57.679 39.4341 56.955C39.2893 56.5206 39.1445 56.0379 38.9997 55.6035C38.9514 55.4105 38.8549 55.1691 38.8066 54.9761C38.5653 54.1555 38.1791 53.4315 37.793 52.8523C38.8549 53.0937 39.965 53.1902 40.9786 53.0454C42.5714 52.8041 43.8746 52.0318 44.7917 50.8251C45.7087 52.0318 47.0119 52.8041 48.6047 53.0454C48.9909 53.0937 49.3287 53.1419 49.7149 53.1419C50.3906 53.1419 51.1146 53.0454 51.7903 52.8523C51.4042 53.4798 51.0181 54.2038 50.7767 54.9761C50.7285 55.1691 50.6319 55.4105 50.5837 55.6035Z" fill="#101010"/>
<path d="M35.1384 34.8969C36.3113 34.8969 37.2621 33.9461 37.2621 32.7732C37.2621 31.6002 36.3113 30.6494 35.1384 30.6494C33.9655 30.6494 33.0146 31.6002 33.0146 32.7732C33.0146 33.9461 33.9655 34.8969 35.1384 34.8969Z" fill="#101010"/>
<path d="M51.5003 33.6904C51.4521 33.98 51.5486 34.2696 51.7417 34.4144C51.8865 34.5109 52.0313 34.5592 52.1761 34.5592C52.2726 34.5592 52.4174 34.5109 52.5139 34.4626C53.3345 34.0282 54.3481 33.7869 55.3617 33.7869C56.1822 33.7869 57.0028 33.9317 57.7268 34.2213C58.1129 34.3661 58.499 34.173 58.6921 33.8352C58.8369 33.449 58.6438 33.0629 58.306 32.8698C56.9062 32.2906 55.1686 32.1941 53.6723 32.532C54.2998 31.8562 55.1686 31.4218 56.134 31.4218C56.6649 31.4218 57.1958 31.5666 57.6785 31.808C58.0164 32.001 58.4508 31.8562 58.6438 31.5184C58.8369 31.1805 58.6921 30.7461 58.3542 30.553C57.6785 30.2152 56.9062 30.0221 56.134 30.0221C53.9137 29.9738 51.983 31.5184 51.5003 33.6904Z" fill="#101010"/>
<path d="M97.8364 82.295C97.8364 81.571 97.5469 80.9436 97.0642 80.4126L89.1002 72.4486C88.0866 71.435 86.3972 71.435 85.3836 72.4486L82.7289 75.1033C81.474 73.8001 80.026 72.5451 78.6745 71.3867C77.9988 70.8075 77.3713 70.2283 76.7439 69.6974C73.0273 66.3187 69.7452 63.1331 67.6697 59.1752C69.7934 56.8102 71.3862 53.9142 71.6276 50.8733C72.0137 51.0664 72.3516 51.2112 72.7377 51.0664C73.51 50.7285 73.51 49.8597 73.5583 49.4736V49.3771C73.6065 48.3635 73.4135 47.1568 73.0273 46.288C72.8825 45.9501 72.8343 45.7088 72.786 45.5157C73.2687 45.7088 74.1857 45.9984 74.7167 44.9848C75.3924 43.7781 74.5236 41.8475 73.9444 40.5925C73.8479 40.3995 73.7996 40.2547 73.7031 40.1099C73.0756 38.7101 72.3516 37.3586 71.4828 36.1037C70.8553 35.1866 70.1313 34.2696 69.4073 33.4973L69.166 33.2077C71.6758 31.1322 76.8887 24.1335 77.6609 13.4666L77.7092 13.0322C77.854 10.9084 78.0471 8.68818 77.9988 6.51617V6.22657C77.9988 4.63377 77.9988 2.51003 76.7439 1.25509C73.4617 -2.02705 68.0558 2.51003 65.6908 4.4407C62.65 6.99884 59.754 10.1362 56.858 14.0941C54.6377 17.1349 52.8035 17.2314 50.6798 17.0383C49.7145 16.9418 48.6526 16.797 47.6873 16.7005C46.4323 16.5557 45.3705 16.4109 44.6947 16.4109C44.019 16.4109 42.9571 16.5557 41.7022 16.7005C40.7851 16.8453 39.675 16.9418 38.7096 17.0383C36.5376 17.2314 34.7518 17.1349 32.5315 14.0941C29.6355 10.1362 26.7877 6.99884 23.6987 4.39243C21.3819 2.46176 15.976 -2.07531 12.6938 1.20683C11.4389 2.46176 11.4389 4.63377 11.4389 6.17831V6.46791C11.4389 8.63991 11.5837 10.8602 11.7285 13.0322L11.7768 13.4666C12.549 24.1335 17.7619 31.1322 20.2717 33.2077L20.0304 33.4973C19.2581 34.3178 18.5824 35.1866 17.9549 36.152C17.9549 36.2002 15.6864 39.8203 16.6517 40.9787C16.8448 41.22 17.2309 41.5096 18.0032 41.22C17.8101 41.7509 17.4723 42.2336 17.0861 42.7645C16.8448 43.0541 16.6035 43.392 16.4104 43.7299C15.6864 44.9365 15.4933 46.3845 15.3485 47.6877C15.3485 47.9291 15.3485 50.1493 16.0725 50.9216C16.2656 51.1147 16.5552 51.2595 16.7965 51.2595C17.2792 51.2595 17.5688 51.0664 17.8101 50.8251C17.8101 50.8733 17.8101 50.9216 17.8101 51.0181C17.8101 51.1147 17.8101 51.2112 17.8101 51.2595C18.0032 52.804 18.4859 54.3003 19.3064 55.8448C19.8856 56.955 20.6096 58.0168 21.4301 58.9822C20.2717 59.4648 17.9549 60.0923 15.3003 58.8856C13.9488 58.2582 12.8869 57.2446 11.7768 56.1827C10.7149 55.1691 9.60477 54.1555 8.2533 53.4315C6.5157 52.5144 4.44023 52.5144 2.75089 53.4315C1.10982 54.3486 0.0479522 55.9414 -0.0968481 57.872C-0.193382 59.2718 0.192753 60.8163 1.06155 62.2643C2.70263 65.0155 5.11596 66.8497 7.43277 68.5873C8.73597 69.6009 10.0874 70.6145 11.2458 71.7729C13.9005 74.3793 15.1555 76.8409 15.3968 79.7851C15.7347 84.467 14.6245 87.7009 12.6938 92.431C10.5701 97.7887 9.26691 104.16 9.26691 109.421C9.26691 109.807 9.60477 110.145 9.99091 110.145C10.377 110.145 10.7149 109.807 10.7149 109.421C10.7149 105.946 11.3424 101.843 12.356 97.9817C12.8386 96.2441 13.3696 94.5548 13.9971 92.962C15.4451 89.3902 16.4104 86.639 16.7483 83.55C16.8448 82.3433 16.8931 81.0884 16.7965 79.6886C16.5552 76.4065 15.1072 73.5587 12.2112 70.711C12.0181 70.5179 11.825 70.3249 11.632 70.1801C11.5354 70.1318 11.4872 70.0353 11.3906 69.9387C10.377 69.0217 9.31517 68.2011 8.2533 67.3806C5.9365 65.5947 3.71623 63.9536 2.21996 61.4438C1.73729 60.575 1.15809 59.2718 1.25462 57.872C1.35116 56.955 1.68902 56.0862 2.26822 55.4587C2.55782 55.1208 2.94396 54.8312 3.33009 54.5899C4.58503 53.9142 6.12957 53.9142 7.48104 54.5899C7.9637 54.8795 8.44637 55.1691 8.92904 55.5552C9.50824 56.0379 10.0874 56.5688 10.7149 57.148C11.8733 58.2582 13.08 59.4166 14.6245 60.0923C18.148 61.7334 21.2371 60.575 22.3955 59.9958C22.8781 60.4302 23.3608 60.8646 23.8435 61.299C24.0848 61.492 24.3744 61.6851 24.664 61.8782C25.1467 62.216 25.6776 62.5539 26.2085 62.8435C27.0291 63.3262 27.8979 63.664 28.7184 63.9536C28.7667 63.9536 28.8632 64.0019 28.9115 64.0019C29.2011 64.0019 29.4907 63.8088 29.5872 63.471C29.5872 63.4227 29.6355 63.3262 29.6355 63.2779C29.6355 62.9883 29.4424 62.6987 29.1528 62.6022C28.4288 62.3608 27.6566 62.023 26.8843 61.6368C25.8707 61.0576 24.9053 60.3819 24.0365 59.6096C23.9883 59.5614 23.94 59.5131 23.8917 59.4648C23.7952 59.3683 23.6504 59.2718 23.5539 59.127C23.4091 58.9822 23.2643 58.8374 23.1195 58.6926C23.0712 58.6443 23.0229 58.596 23.0229 58.5478C22.0093 57.4859 21.1888 56.3275 20.5131 55.0726C19.7891 53.7211 19.3547 52.3696 19.2099 51.0181C19.2099 50.9699 19.2099 50.9216 19.2099 50.8733C19.1133 49.7149 19.0168 48.7496 18.2928 48.5565C18.0997 48.5083 17.6653 48.4117 17.2309 48.9427C17.0861 49.0875 16.9896 49.2805 16.9413 49.4253C16.8448 48.8944 16.7483 48.1221 16.7965 47.8325C16.8931 46.6259 17.0861 45.4192 17.6653 44.4539C17.8584 44.1643 18.0515 43.8747 18.2445 43.5851C18.6789 42.9576 19.1616 42.3301 19.4029 41.5096C19.596 40.8339 19.4995 40.2547 19.1133 39.9168C18.9203 39.7237 18.4859 39.5307 17.8584 39.7237C18.0997 38.9032 18.8237 37.4069 19.1133 36.9725C19.6925 36.1037 20.3683 35.2832 21.0923 34.4626L21.5267 33.9317L21.8163 33.5456C21.9611 33.4008 22.0093 33.1594 21.9611 32.9664C21.9128 32.7733 21.8163 32.5802 21.6232 32.4837C20.0787 31.4701 14.0936 24.6162 13.2731 13.3218L13.2248 12.8874C13.08 10.7636 12.8869 8.59164 12.9352 6.46791V6.17831C12.9352 4.8751 12.9352 3.04096 13.7557 2.22043C16.1208 -0.144644 20.8027 3.81323 22.8299 5.50257C25.7741 7.96418 28.5736 11.0532 31.4214 14.9146C34.076 18.5346 36.5859 18.6311 38.9027 18.4381C39.9163 18.3415 40.9782 18.1967 41.9435 18.1002C43.1019 17.9554 44.1638 17.8106 44.743 17.8106C45.3222 17.8106 46.3841 17.9554 47.5425 18.1002C48.5078 18.245 49.5697 18.3415 50.5833 18.4381C52.9001 18.6311 55.41 18.5346 58.0646 14.9146C60.8641 11.0532 63.6636 8.01244 66.6561 5.50257C68.6833 3.81323 73.3652 -0.0963768 75.7303 2.2687C76.5508 3.08923 76.5508 4.92337 76.5508 6.22657V6.51617C76.5508 8.63991 76.406 10.8119 76.2612 12.9357L76.2129 13.3701C75.3924 24.6645 69.4073 31.5184 67.7662 32.4354C67.5732 32.532 67.4766 32.725 67.4284 32.9181C67.3801 33.1112 67.4284 33.3525 67.5732 33.4973L67.8628 33.8834L68.2972 34.4626C69.0212 35.2349 69.6487 36.0554 70.2761 36.9242C71.0967 38.1309 71.7724 39.3859 72.3516 40.6891C72.3998 40.8339 72.4964 41.0269 72.5929 41.22C72.9308 41.944 73.7031 43.5851 73.4617 44.2608C73.3652 44.2125 73.2687 44.1643 73.1721 44.1643C73.0273 44.116 72.8825 44.0195 72.7377 44.0195C72.3516 43.9229 71.9172 44.0195 71.6276 44.3091C71.1449 44.84 71.1932 45.7571 71.6276 46.8672C71.9172 47.5429 72.062 48.5565 72.062 49.3771V49.4736C72.062 49.4736 72.062 49.5219 72.062 49.5701C71.5793 49.2805 71.0966 49.0392 70.614 49.3288C70.3244 49.4736 70.1796 49.7632 70.1796 50.1011C70.1796 53.4315 68.2489 56.7136 65.6908 59.1752C64.0014 60.8163 61.9742 62.0712 60.0918 62.6504C59.8022 62.747 59.6092 63.0366 59.6092 63.3262C59.6092 63.3744 59.6092 63.471 59.6574 63.5192C59.754 63.9054 60.1884 64.0984 60.5745 64.0019C62.65 63.3744 64.7737 62.0712 66.6078 60.3336C68.8281 64.3398 72.1103 67.4771 75.7785 70.8558C76.406 71.435 77.0335 71.9659 77.7092 72.5451C77.854 72.6899 78.0471 72.8347 78.1919 72.9795C79.3503 73.9931 80.5569 75.055 81.6671 76.2134C81.8119 76.4065 82.0049 76.5513 82.1497 76.7443C82.2945 76.9374 82.4876 77.1305 82.6324 77.2753C83.7425 78.5785 84.6596 80.0265 85.094 81.5228C85.5767 83.2121 85.2871 84.998 84.2735 86.1081C83.4529 86.9769 82.2945 87.3148 80.8465 87.0252C79.0124 86.639 77.4679 85.3358 76.0199 83.8878C75.8268 83.6948 75.682 83.55 75.4889 83.3569C75.3924 83.2604 75.2476 83.1156 75.1511 83.019C75.1028 82.9708 75.0545 82.9225 74.958 82.826C74.6201 82.4881 74.3305 82.1985 73.9927 81.8606C73.7996 81.7158 73.51 81.4262 73.1239 81.1849C72.6895 80.8953 72.1103 80.7505 71.4828 80.9436C70.7588 81.1849 70.2761 81.9572 70.2761 82.7777C70.2761 83.4052 70.5175 83.9361 70.7588 84.467C71.0484 85.0462 71.2897 85.6254 71.5311 86.2046L67.8145 89.9212L65.546 92.1897C65.0633 92.6724 64.7737 93.3481 64.7737 94.0721C64.7737 94.7961 65.0633 95.4236 65.546 95.9545L73.51 103.919C74.0409 104.449 74.7167 104.691 75.3924 104.691C76.0681 104.691 76.7439 104.449 77.2748 103.919L77.9988 103.195C78.3367 105.222 78.5297 107.297 78.5297 109.324C78.5297 109.711 78.8676 110.048 79.2537 110.048C79.6399 110.048 79.9777 109.711 79.9777 109.324C79.9777 106.863 79.7364 104.353 79.2055 101.94L96.9194 84.2257C97.5951 83.6948 97.8364 83.019 97.8364 82.295ZM96.0506 83.1638L78.9641 100.25L78.3849 100.829L77.7575 101.457L76.3577 102.857C75.8751 103.339 75.1511 103.339 74.6684 102.857L66.7044 94.8927C66.463 94.6513 66.3665 94.3617 66.3665 94.0721C66.3665 93.7825 66.5113 93.4446 66.7044 93.2516L68.8281 91.1278L72.3516 87.6044L72.8825 87.0734L73.4135 86.5425L75.0545 84.9014C76.6473 86.4942 78.3849 87.9905 80.6052 88.4249C80.8465 88.4732 81.0396 88.5214 81.2809 88.5214C81.3775 88.5214 81.4257 88.5214 81.5223 88.5214C81.6671 88.5214 81.7636 88.5214 81.9084 88.5214H81.9567C82.0049 88.5214 82.0532 88.5214 82.1015 88.5214C82.2463 88.5214 82.3911 88.5214 82.5359 88.4732C82.5841 88.4732 82.6807 88.4732 82.7289 88.4249C82.8737 88.4249 83.0185 88.3766 83.1633 88.3284C83.2116 88.3284 83.2599 88.3284 83.3082 88.2801C83.5012 88.2318 83.646 88.1836 83.8391 88.087C83.8873 88.087 83.8873 88.0388 83.9356 88.0388C84.0804 87.9905 84.2252 87.894 84.3217 87.8457C84.37 87.7974 84.4183 87.7974 84.4666 87.7492C84.5631 87.6526 84.7079 87.6044 84.8044 87.5078C84.8527 87.4596 84.9009 87.4596 84.9492 87.4113C85.094 87.2665 85.2388 87.17 85.3836 87.0252C86.7351 85.5772 87.1695 83.2121 86.542 81.0401C86.0111 79.2542 84.9975 77.6614 83.6943 76.1651L86.3972 73.4622C86.6386 73.2209 86.9282 73.1243 87.2178 73.1243C87.5074 73.1243 87.8452 73.2691 88.0383 73.4622L96.0023 81.4262C96.5332 81.9572 96.5332 82.6812 96.0506 83.1638ZM71.8689 82.7777C71.8689 82.5364 71.9654 82.3433 72.1103 82.295C72.2068 82.2467 72.4964 82.295 73.1239 82.8742C73.4135 83.1638 73.7513 83.5017 74.0409 83.8396L72.7377 85.1428C72.5447 84.7566 72.3516 84.3222 72.1585 83.8878C72.0137 83.4534 71.8689 83.1156 71.8689 82.7777Z" fill="#101010"/>
<path d="M78.0471 97.1612C77.8058 97.1129 77.5162 97.1129 77.2749 97.2095C77.0818 97.2577 76.937 97.3543 76.7922 97.4991L76.6474 97.6439L76.5991 97.6921L74.7167 99.5745C74.2341 100.057 74.2341 100.878 74.7167 101.36C74.9581 101.602 75.2959 101.747 75.5855 101.747C75.9234 101.747 76.213 101.602 76.4543 101.36L77.4679 100.347L78.0471 99.7676L78.5781 99.2367C78.6264 99.1884 78.6264 99.1884 78.6746 99.1401C79.0608 98.6575 79.0608 97.9335 78.5781 97.4508C78.4816 97.306 78.2885 97.2095 78.0471 97.1612Z" fill="#101010"/>
</g>
<defs>
<clipPath id="clip0_14_967">
<rect width="97.8368" height="110" fill="white"/>
</clipPath>
</defs>
</svg>
