<svg width="24" height="24" viewBox="0 0 24 24" fill="none" xmlns="http://www.w3.org/2000/svg">
<path d="M12 10.2353H0V9.17647C0 8.3968 0.632062 7.76469 1.41178 7.76469H10.5883C11.368 7.76469 12 8.39675 12 9.17647L12 10.2353ZM12 11.6471V14.8235C12 15.6032 11.3679 16.2353 10.5882 16.2353H1.41178C0.632062 16.2353 0 15.6033 0 14.8235V11.6471H12ZM6.35292 17.6471H10.5882C12.1476 17.6471 13.4117 16.3829 13.4117 14.8235V9.17647C13.4117 7.61708 12.1476 6.35296 10.5882 6.35296H6.35292V4.94117C6.35292 3.77164 7.30102 2.82355 8.47055 2.82355H21.8823C23.0519 2.82355 24 3.77164 24 4.94117V19.0588C24 20.2284 23.0519 21.1765 21.8823 21.1765H8.47059C7.30106 21.1765 6.35297 20.2284 6.35297 19.0588V17.6471H6.35292ZM19.9715 10.0891L17.6471 12.4135L16.7344 11.5009C16.4588 11.2252 16.0118 11.2252 15.7362 11.5009C15.4605 11.7765 15.4605 12.2235 15.7362 12.4991L17.148 13.9109C17.4236 14.1866 17.8705 14.1866 18.1462 13.9109L20.9697 11.0874C21.2454 10.8117 21.2454 10.3648 20.9697 10.0891C20.694 9.81341 20.2471 9.81341 19.9715 10.0891Z" fill="#53C855"/>
</svg>
