<svg width="24" height="24" viewBox="0 0 24 24" fill="none" xmlns="http://www.w3.org/2000/svg">
<g clip-path="url(#clip0_14_960)">
<path d="M19.0312 14.1562H22.7085L23.9572 8.16731C24.0581 7.5555 23.8858 6.93408 23.4855 6.46308C23.0837 5.98997 22.4953 5.71875 21.8718 5.71875H2.12798C1.5045 5.71875 0.916075 5.98997 0.514356 6.46308C0.114044 6.93412 -0.0583154 7.55555 0.0481377 8.19684L1.29122 14.1562H4.96865C5.35729 14.1562 5.67178 14.4707 5.67178 14.8594C5.67178 15.248 5.35729 15.5625 4.96865 15.5625H1.29131L0.0426533 21.5514C-0.0582685 22.1632 0.114044 22.7847 0.514356 23.2557C0.916075 23.7288 1.50454 24 2.12798 24H21.8718C22.4953 24 23.0837 23.7288 23.4854 23.2557C23.8857 22.7846 24.0581 22.1632 23.9516 21.5219L22.7086 15.5625H19.0312C18.6425 15.5625 18.328 15.248 18.328 14.8594C18.328 14.4707 18.6425 14.1562 19.0312 14.1562ZM11.9999 16.9688C11.9999 18.5199 10.7385 19.7812 9.1874 19.7812C7.99814 19.7812 6.93178 19.028 6.53559 17.906C6.40579 17.54 6.59737 17.1383 6.96408 17.0093C7.32867 16.8788 7.73175 17.0717 7.86084 17.4377C8.05926 17.998 8.59275 18.375 9.1874 18.375C9.96262 18.375 10.5937 17.744 10.5937 16.9688C10.5937 16.1935 9.96262 15.5625 9.1874 15.5625H8.31332C7.92539 15.5625 7.6102 15.248 7.6102 14.8594C7.6102 14.4707 7.92539 14.1562 8.31332 14.1562H9.1874C9.96262 14.1562 10.5937 13.5252 10.5937 12.75C10.5937 11.9748 9.96262 11.3438 9.1874 11.3438C8.59275 11.3438 8.05926 11.7207 7.86079 12.281C7.7317 12.6477 7.32797 12.84 6.96403 12.7095C6.59737 12.5804 6.40579 12.1787 6.53554 11.8127C6.93178 10.6907 7.99814 9.9375 9.1874 9.9375C10.7385 9.9375 11.9999 11.1989 11.9999 12.75C11.9999 13.5891 11.6305 14.3437 11.0455 14.8594C11.6305 15.375 11.9999 16.1297 11.9999 16.9688ZM16.9218 19.0781C16.9218 19.4668 16.6073 19.7812 16.2187 19.7812C15.83 19.7812 15.5155 19.4668 15.5155 19.0781V11.9542L14.4993 12.6319C14.1752 12.8461 13.7392 12.7596 13.5242 12.4369C13.3086 12.1135 13.3958 11.6775 13.7192 11.4618L15.8286 10.0556C16.0442 9.91205 16.3223 9.89836 16.5503 10.0206C16.7789 10.1428 16.9218 10.3811 16.9218 10.6406V19.0781Z" fill="#53C855"/>
<path d="M1.53247 2.10938V4.21875H22.6262V2.10938C22.6262 0.946219 21.68 0 20.5168 0H3.64185C2.47864 0 1.53247 0.946219 1.53247 2.10938ZM19.1106 1.40625C19.4989 1.40625 19.8137 1.72097 19.8137 2.10938C19.8137 2.49769 19.4989 2.8125 19.1106 2.8125C18.7223 2.8125 18.4075 2.49769 18.4075 2.10938C18.4075 1.72097 18.7223 1.40625 19.1106 1.40625ZM5.0481 1.40625C5.43641 1.40625 5.75122 1.72097 5.75122 2.10938C5.75122 2.49769 5.43641 2.8125 5.0481 2.8125C4.65978 2.8125 4.34497 2.49769 4.34497 2.10938C4.34497 1.72097 4.65978 1.40625 5.0481 1.40625Z" fill="#53C855"/>
</g>
<defs>
<clipPath id="clip0_14_960">
<rect width="24" height="24" fill="white"/>
</clipPath>
</defs>
</svg>
