<svg width="32" height="32" viewBox="0 0 32 32" fill="none" xmlns="http://www.w3.org/2000/svg">
<g clip-path="url(#clip0_14_1047)">
<path fill-rule="evenodd" clip-rule="evenodd" d="M16.2496 19.8057C17.3104 19.8057 18.2193 19.1553 18.5993 18.2316C22.5105 17.1947 25.3931 13.6306 25.3931 9.39328C25.3931 4.34385 21.2997 0.250427 16.2503 0.250427C11.2008 0.250427 7.10742 4.34386 7.10742 9.39328C7.10742 11.8856 8.10566 14.1101 9.71433 15.7545C10.1067 16.1555 10.7499 16.1626 11.1509 15.7702C11.552 15.3779 11.559 14.7347 11.1667 14.3337C9.90816 13.0472 9.13917 11.3248 9.13917 9.39328C9.13917 5.46595 12.3229 2.28217 16.2503 2.28217C20.1776 2.28217 23.3614 5.46595 23.3614 9.39328C23.3614 12.5257 21.336 15.1851 18.5234 16.1333C18.107 15.2992 17.2452 14.7263 16.2496 14.7263C14.847 14.7263 13.71 15.8634 13.71 17.266C13.71 18.6686 14.847 19.8057 16.2496 19.8057ZM3.80556 32.25C1.84192 32.25 0.25 30.6582 0.25 28.6945V26.3452C0.25 24.2346 1.15254 22.2191 2.7422 20.8224L2.74221 20.8223C4.31933 19.4367 6.65816 18.1087 9.77666 17.2985C10.3197 17.1574 10.8743 17.4833 11.0153 18.0263C11.1564 18.5693 10.8306 19.1239 10.2875 19.265C7.44921 20.0024 5.40164 21.1903 4.08326 22.3486C2.93666 23.3561 2.28175 24.8136 2.28175 26.3452V28.6945C2.28175 29.5361 2.96399 30.2183 3.80556 30.2183H28.6944C29.5361 30.2183 30.2183 29.5361 30.2183 28.6945V26.3452C30.2183 24.8136 29.5633 23.3561 28.4167 22.3486C27.6018 21.6327 26.5063 20.9084 25.1135 20.2895C24.6008 20.0616 24.3699 19.4613 24.5977 18.9486C24.8255 18.4359 25.4259 18.2049 25.9386 18.4328C27.5055 19.1291 28.7778 19.9613 29.7578 20.8223L29.7578 20.8224C31.3475 22.2191 32.25 24.2346 32.25 26.3452V28.6945C32.25 30.6582 30.6582 32.25 28.6944 32.25H3.80556Z" fill="#53C855"/>
</g>
<defs>
<clipPath id="clip0_14_1047">
<rect width="32" height="32" fill="white"/>
</clipPath>
</defs>
</svg>
