<svg width="32" height="32" viewBox="0 0 32 32" fill="none" xmlns="http://www.w3.org/2000/svg">
<g clip-path="url(#clip0_14_1036)">
<path fill-rule="evenodd" clip-rule="evenodd" d="M13.2633 30.5669C13.3937 30.0257 13.0607 29.4813 12.5195 29.351C6.49267 27.8987 2.01575 22.4706 2.01575 15.9993V15.9992C2.01575 8.39245 8.18623 2.01605 15.7491 2.01605C19.5492 2.01605 23.0033 3.66905 25.5042 6.26697C25.8903 6.66799 26.5283 6.68013 26.9293 6.29409C27.3303 5.90805 27.3425 5.27002 26.9564 4.869C24.1132 1.91543 20.1491 0.000305176 15.7491 0.000305176C7.02924 0.000305176 0 7.32342 0 15.9992V15.9993C0 23.4233 5.13591 29.6452 12.0474 31.3106C12.5885 31.441 13.1329 31.108 13.2633 30.5669ZM23.6221 10.0156C23.6221 10.5722 24.0733 11.0235 24.6299 11.0235H28.2205C30.1687 11.0235 31.748 9.44409 31.748 7.49591V3.90536C31.748 3.34873 31.2968 2.89749 30.7402 2.89749C30.1835 2.89749 29.7323 3.34873 29.7323 3.90536V7.49591C29.7323 8.33083 29.0554 9.00771 28.2205 9.00771H24.6299C24.0733 9.00771 23.6221 9.45895 23.6221 10.0156ZM29.4801 22.6768C28.6103 22.6768 27.9053 21.9718 27.9053 21.102C27.9053 20.2322 28.6103 19.5272 29.4801 19.5272C30.3498 19.5272 31.0549 20.2322 31.0549 21.102C31.0549 21.9718 30.3498 22.6768 29.4801 22.6768ZM25.1973 25.7006C25.1973 26.5704 25.9023 27.2754 26.7721 27.2754C27.6418 27.2754 28.3469 26.5704 28.3469 25.7006C28.3469 24.8309 27.6418 24.1258 26.7721 24.1258C25.9023 24.1258 25.1973 24.8309 25.1973 25.7006ZM22.6139 30.4883C21.7441 30.4883 21.0391 29.7833 21.0391 28.9135C21.0391 28.0438 21.7441 27.3387 22.6139 27.3387C23.4836 27.3387 24.1887 28.0438 24.1887 28.9135C24.1887 29.7833 23.4836 30.4883 22.6139 30.4883ZM15.8105 30.4252C15.8105 31.295 16.5156 32 17.3853 32C18.2551 32 18.9601 31.295 18.9601 30.4252C18.9601 29.5555 18.2551 28.8504 17.3853 28.8504C16.5156 28.8504 15.8105 29.5554 15.8105 30.4252ZM15.8741 13.9842C15.746 13.9842 15.6208 13.9969 15.4998 14.0212L11.9827 10.5573C11.5861 10.1667 10.948 10.1716 10.5574 10.5682C10.1668 10.9648 10.1716 11.6029 10.5682 11.9935L14.0408 15.4136C14.004 15.5609 13.9844 15.7152 13.9844 15.8739C13.9844 16.9176 14.8305 17.7637 15.8741 17.7637C16.9178 17.7637 17.7639 16.9176 17.7639 15.8739C17.7639 14.8303 16.9178 13.9842 15.8741 13.9842Z" fill="#53C855"/>
</g>
<defs>
<clipPath id="clip0_14_1036">
<rect width="32" height="32" fill="white"/>
</clipPath>
</defs>
</svg>
