<svg width="32" height="32" viewBox="0 0 32 32" fill="none" xmlns="http://www.w3.org/2000/svg">
<g clip-path="url(#clip0_14_1019)">
<path d="M11.5059 20.306C12.5882 20.7638 13.7374 20.996 14.9214 20.996C16.1054 20.996 17.2546 20.7638 18.3371 20.306C19.3821 19.8639 20.3203 19.2313 21.1259 18.4258C21.9314 17.6203 22.564 16.682 23.006 15.637C23.4639 14.5545 23.6961 13.4053 23.6961 12.2213C23.6961 11.6425 23.2269 11.1733 22.6481 11.1733C22.0694 11.1733 21.6002 11.6425 21.6002 12.2213C21.6002 15.904 18.6041 18.9002 14.9214 18.9002C11.2395 18.9002 8.24407 15.904 8.24407 12.2213C8.24407 11.6425 7.77488 11.1733 7.19613 11.1733C6.61738 11.1733 6.14819 11.6425 6.14819 12.2213C6.14819 13.4053 6.38026 14.5545 6.83801 15.6369C7.27988 16.6819 7.91232 17.6202 8.71763 18.4258C9.52288 19.2313 10.4611 19.8639 11.5059 20.306Z" fill="#53C855"/>
<path d="M21.8959 25.1815C19.8078 23.8705 17.396 23.1776 14.9213 23.1776C12.4284 23.1776 10.0015 23.88 7.90298 25.2091C5.86279 26.5012 4.21704 28.3257 3.14367 30.4854C2.8861 31.0037 3.09742 31.6327 3.61573 31.8903C3.7656 31.9648 3.9246 32 4.08135 32C4.46667 32 4.83748 31.7867 5.0206 31.4182C6.90429 27.628 10.698 25.2736 14.9213 25.2736C19.1072 25.2736 22.886 27.5981 24.7829 31.34C24.9677 31.7044 25.3361 31.9144 25.7185 31.9144C25.8778 31.9144 26.0397 31.8779 26.1915 31.8009C26.7077 31.5392 26.914 30.9086 26.6524 30.3924C25.5701 28.2575 23.9254 26.4555 21.8959 25.1815Z" fill="#53C855"/>
<path d="M27.9183 7.10838H23.6489C23.5583 6.31512 23.3371 5.54431 22.9878 4.808C22.5383 3.86019 21.8973 3.01112 21.0825 2.2845C20.2764 1.56556 19.3398 1.00188 18.2988 0.609125C17.2276 0.204938 16.0913 0 14.9215 0C13.7517 0 12.6154 0.204937 11.5443 0.609062C10.5034 1.00181 9.56701 1.5655 8.76107 2.2845C7.94657 3.01112 7.30569 3.86019 6.85626 4.80806C6.38638 5.79906 6.14819 6.8525 6.14819 7.93925C6.14819 7.97587 6.15007 8.01206 6.15376 8.04775C6.15007 8.08344 6.14819 8.11963 6.14819 8.15625C6.14819 8.735 6.61738 9.20419 7.19613 9.20419H27.9183C28.497 9.20419 28.9662 8.735 28.9662 8.15625C28.9662 7.5775 28.4971 7.10838 27.9183 7.10838ZM14.9215 2.09594C18.2818 2.09594 21.0704 4.27844 21.5328 7.10838H8.31157C8.77394 4.27844 11.5619 2.09594 14.9215 2.09594Z" fill="#53C855"/>
</g>
<defs>
<clipPath id="clip0_14_1019">
<rect width="32" height="32" fill="white"/>
</clipPath>
</defs>
</svg>
