<svg width="32" height="32" viewBox="0 0 32 32" fill="none" xmlns="http://www.w3.org/2000/svg">
<g clip-path="url(#clip0_14_1026)">
<path d="M16.4197 32C15.8734 32.0009 15.3349 31.8692 14.8507 31.6161C2.84191 25.3165 2.79281 12.8525 3.06398 9.1832C3.1063 8.63375 3.2792 8.10234 3.56832 7.6332C3.85744 7.16405 4.2544 6.77072 4.72619 6.48594L14.5639 0.508888C15.1102 0.174411 15.7387 -0.00176031 16.3793 1.32603e-05C17.0199 0.00178683 17.6474 0.181436 18.1918 0.518932L28.1579 6.64999C28.6375 6.94167 29.0388 7.34581 29.3272 7.82743C29.6156 8.30906 29.7822 8.85369 29.8128 9.4142C30.4297 24.3407 20.6333 31.2128 16.4197 32ZM16.3695 2.28769C16.1512 2.28806 15.9372 2.34827 15.7507 2.46179L5.9119 8.43886C5.75143 8.53498 5.61613 8.66788 5.51717 8.82661C5.41821 8.98533 5.35843 9.16532 5.34276 9.35171C5.09781 12.6706 5.13631 23.9395 15.9125 29.5918C16.075 29.6747 16.255 29.7172 16.4374 29.7159C16.6198 29.7145 16.7992 29.6693 16.9604 29.584C20.3473 27.8799 28.1562 22.5155 27.5296 9.52468C27.5159 9.33562 27.457 9.1526 27.3579 8.99103C27.2587 8.82946 27.1222 8.69405 26.9599 8.59621L16.9944 2.46516C16.8066 2.34933 16.5902 2.28789 16.3695 2.28769Z" fill="#53C855"/>
<path d="M14.1824 20.923C14.0187 20.923 13.857 20.8878 13.708 20.8198C13.5591 20.7518 13.4265 20.6527 13.3192 20.5291L10.463 17.237C10.271 17.0072 10.1769 16.7112 10.2009 16.4128C10.2249 16.1143 10.3651 15.8372 10.5913 15.641C10.8175 15.4448 11.1116 15.3452 11.4105 15.3636C11.7093 15.382 11.989 15.517 12.1894 15.7395L14.2405 18.103L20.7314 11.5869C20.9467 11.3787 21.2352 11.2634 21.5347 11.2657C21.8342 11.2679 22.1209 11.3877 22.333 11.5991C22.5452 11.8105 22.6659 12.0968 22.6692 12.3963C22.6725 12.6958 22.5581 12.9846 22.3506 13.2007L14.9921 20.5871C14.8859 20.6936 14.7597 20.7781 14.6207 20.8357C14.4818 20.8934 14.3329 20.923 14.1824 20.923Z" fill="#53C855"/>
</g>
<defs>
<clipPath id="clip0_14_1026">
<rect width="32" height="32" fill="white"/>
</clipPath>
</defs>
</svg>
