<svg width="16" height="12" viewBox="0 0 16 12" fill="none" xmlns="http://www.w3.org/2000/svg">
<path d="M14.8927 1.62712L13.1525 5.33333C13.7552 5.42373 14.2448 5.60452 14.6215 5.87571C14.9981 6.13183 15.2844 6.42561 15.4802 6.75706C15.6911 7.07345 15.8267 7.4049 15.887 7.75141C15.9623 8.08286 16 8.38418 16 8.65537C16 9.19774 15.8945 9.67985 15.6836 10.1017C15.4727 10.5235 15.194 10.8776 14.8475 11.1638C14.516 11.435 14.1318 11.646 13.6949 11.7966C13.258 11.9322 12.8136 12 12.3616 12C11.9247 12 11.5028 11.9322 11.096 11.7966C10.6893 11.661 10.3277 11.4576 10.0113 11.1864C9.69491 10.9153 9.43879 10.5838 9.24294 10.1921C9.06215 9.80038 8.97175 9.35593 8.97175 8.85876C8.97175 7.92467 9.29567 6.7646 9.9435 5.37853L11.887 1.24294C12.2637 0.414313 12.8362 0 13.6045 0C13.9962 0 14.3202 0.120527 14.5763 0.361582C14.8475 0.602637 14.9831 0.881356 14.9831 1.19774C14.9831 1.31827 14.9529 1.46139 14.8927 1.62712ZM5.9209 1.62712L4.15819 5.33333C4.76083 5.42373 5.25047 5.60452 5.62712 5.87571C6.00377 6.13183 6.29755 6.42561 6.50847 6.75706C6.7194 7.07345 6.85499 7.4049 6.91525 7.75141C6.99058 8.08286 7.02825 8.38418 7.02825 8.65537C7.02825 9.19774 6.92279 9.67985 6.71186 10.1017C6.50094 10.5235 6.22222 10.8776 5.87571 11.1638C5.52919 11.435 5.13748 11.646 4.70056 11.7966C4.26365 11.9322 3.81921 12 3.36723 12C2.93032 12 2.50847 11.9322 2.10169 11.7966C1.70998 11.661 1.35593 11.4652 1.03955 11.209C0.723164 10.9379 0.467043 10.6064 0.271186 10.2147C0.0903955 9.82298 0 9.37853 0 8.88136C0 8.38418 0.0828625 7.84934 0.248588 7.27684C0.414313 6.68927 0.655367 6.0565 0.971751 5.37853L2.91525 1.24294C3.2919 0.414313 3.86441 0 4.63277 0C5.00942 0 5.33333 0.120527 5.60452 0.361582C5.87571 0.602637 6.0113 0.881356 6.0113 1.19774C6.0113 1.31827 5.98117 1.46139 5.9209 1.62712Z" fill="#53C855"/>
</svg>
